trial_1_ID.mot
nRows=10
nColumns=42

name trial_1_ID.mot
datacolumns 42
datarows 10
range 2.6900000000 2.7800000000
endheader
time	pelvis_tilt_moment	pelvis_list_moment	pelvis_rotation_moment	pelvis_tx_force	pelvis_ty_force	pelvis_tz_force	hip_flexion_r_moment	hip_adduction_r_moment	hip_rotation_r_moment	knee_angle_r_moment	knee_vv_r_moment	knee_rot_r_moment	ankle_angle_r_moment	subtalar_angle_r_moment	mtp_angle_r_moment	hip_flexion_l_moment	hip_adduction_l_moment	hip_rotation_l_moment	knee_angle_l_moment	knee_vv_l_moment	knee_rot_l_moment	ankle_angle_l_moment	subtalar_angle_l_moment	mtp_angle_l_moment	lumbar_extension_moment	lumbar_bending_moment	lumbar_rotation_moment	arm_flex_r_moment	arm_add_r_moment	arm_rot_r_moment	elbow_flex_r_moment	pro_sup_r_moment	wrist_flex_r_moment	wrist_dev_r_moment	arm_flex_l_moment	arm_add_l_moment	arm_rot_l_moment	elbow_flex_l_moment	pro_sup_l_moment	wrist_flex_l_moment	wrist_dev_l_moment
        2.6900000000	        5.9542477400	       10.0575178200	        3.3863443800	        3.6907019200	        8.9990995300	       -1.7609589200	        7.6832516700	        0.3539875200	       -0.8446240500	        1.7670502900	        0.7853458900	        0.0533878100	        0.6746922200	       -0.0532044400	        0.0335900600	       -4.5392758400	      -52.3446272000	        1.3601790100	        3.9784461800	       26.3607597800	        1.5428869200	       -6.8119275600	        4.5888040300	        0.0276262400	       17.9721778700	        2.8277473400	        3.9005959200	        0.2252823500	       -1.7527945600	       -0.1187351500	       -0.2614315700	       -0.0170063700	       -0.0263996400	        0.0027256000	       -0.9044170900	       -0.8144767400	       -0.0143217500	        0.0247719100	       -0.0024014800	        0.0294641500	        0.0032747500	
        2.7000000000	        4.9205066600	        9.1719931500	        3.7283529700	        2.7987908400	        7.1891270200	       -0.6652284100	        6.7736353400	       -0.1896047800	       -0.4212237800	        1.2693575400	        0.3538673200	        0.0371970600	        0.5378418000	       -0.0579437000	        0.0267082400	       -3.9610646100	      -51.6414718000	        0.8821295900	        2.8027790600	       25.8668394300	        1.7725806100	       -7.3243619500	        4.5878390700	        0.0275362600	       17.0106652900	        2.0225254900	        4.0460507300	        0.3683081200	       -1.6962796500	       -0.1234220000	       -0.2425229000	       -0.0189881300	       -0.0305373400	        0.0011521400	       -0.9218682200	       -0.8388666600	       -0.0077808200	        0.0234808100	       -0.0016257100	        0.0286302600	        0.0039631300	
        2.7100000000	        3.9093159700	        8.1386070800	        4.1294324900	        3.0180736700	        4.5050918700	        0.2513909900	        6.1266046400	       -0.7360041700	        0.0497176400	        0.9126103000	       -0.1272182500	        0.0151933600	        0.4524375700	       -0.0733838900	        0.0217000400	       -3.4355225500	      -51.0852855400	        0.4555419500	        1.6698585300	       25.4804880600	        1.9832140400	       -7.8416236000	        4.5809940000	        0.0274939900	       15.8127831700	        1.1353396500	        4.1454641200	        0.5142850000	       -1.6312271900	       -0.1268696200	       -0.2172999500	       -0.0208338200	       -0.0342619200	       -0.0011297300	       -0.9196350900	       -0.8675509700	        0.0011882800	        0.0187674500	       -0.0002543000	        0.0276411200	        0.0053224500	
        2.7200000000	        2.8316051900	        6.9099651000	        4.6061598900	        4.0878933300	        1.4972615500	        1.1507047500	        5.7046382400	       -1.3423299400	        0.5786833600	        0.6596800700	       -0.6741181400	       -0.0119139700	        0.4190568000	       -0.0999247500	        0.0187484800	       -2.9783179100	      -50.6568429400	        0.0863402200	        0.5896264600	       25.1955471300	        2.1695205300	       -8.3917829300	        4.5719980600	        0.0275130500	       14.4401734600	        0.2229900000	        4.2302671300	        0.6561800700	       -1.5625027900	       -0.1281397800	       -0.1882833200	       -0.0223014300	       -0.0373733900	       -0.0038214700	       -0.9014924600	       -0.8934462700	        0.0130193600	        0.0124199100	        0.0016738700	        0.0269364200	        0.0073283100	
        2.7300000000	        1.5970535700	        5.4598205200	        5.1490668500	        5.6495758600	       -1.2852796200	        2.2205009000	        5.4409132100	       -2.0670030800	        1.1673856700	        0.4650578000	       -1.2956961600	       -0.0428912600	        0.4345211500	       -0.1370143200	        0.0178779100	       -2.5991421200	      -50.3375500000	       -0.2238539000	       -0.4310337200	       25.0003836400	        2.3294306200	       -9.0076350900	        4.5668937300	        0.0275954200	       12.9662277100	       -0.6465580800	        4.3283393800	        0.7892972700	       -1.4956386200	       -0.1265325400	       -0.1579157900	       -0.0232103600	       -0.0398041700	       -0.0066524400	       -0.8722209300	       -0.9100864900	        0.0280298000	        0.0062421400	        0.0040607700	        0.0269080100	        0.0098965100	
        2.7400000000	        0.1417719300	        3.7977342400	        5.7184589000	        7.3051431800	       -3.3591518400	        3.6028641300	        5.2568315800	       -2.9462282200	        1.7997785100	        0.2837503200	       -1.9829609600	       -0.0753074400	        0.4928936700	       -0.1827022400	        0.0189886300	       -2.3000185000	      -50.1116587700	       -0.4763626800	       -1.3880187300	       24.8794842800	        2.4629297300	       -9.7243596200	        4.5741559100	        0.0277334000	       11.4722515400	       -1.4064810200	        4.4589387800	        0.9110254100	       -1.4361487100	       -0.1216683400	       -0.1283854600	       -0.0234581800	       -0.0416101800	       -0.0093998300	       -0.8364758100	       -0.9131939300	        0.0461921800	        0.0017629300	        0.0067497300	        0.0278056400	        0.0128893200	
        2.7500000000	       -1.5399908200	        1.9893927400	        6.2494918800	        8.6770071900	       -4.3533614800	        5.3358381400	        5.0853983400	       -3.9680049900	        2.4348800500	        0.0793471400	       -2.6986390500	       -0.1048462900	        0.5865516700	       -0.2332195100	        0.0219024500	       -2.0736426200	      -49.9669552100	       -0.6739444500	       -2.2791007400	       24.8151829500	        2.5707511500	      -10.5770205500	        4.6041542000	        0.0279128500	       10.0439613000	       -1.9994093200	        4.6306954700	        1.0201290200	       -1.3888719500	       -0.1135125700	       -0.1014995600	       -0.0230225600	       -0.0429372100	       -0.0118986100	       -0.7982569200	       -0.9017540100	        0.0669411000	       -0.0000406400	        0.0095367100	        0.0296740900	        0.0161337500	
        2.7600000000	       -3.3823023500	        0.1759078700	        6.6642592800	        9.4463635700	       -4.0511034800	        7.3158888800	        4.8848876800	       -5.0499092200	        3.0048547800	       -0.1727797900	       -3.3701595600	       -0.1249817700	        0.7067784300	       -0.2827301200	        0.0263940200	       -1.9032902300	      -49.8941936400	       -0.8201315300	       -3.1034415700	       24.7892588100	        2.6538473500	      -11.5983043000	        4.6678495900	        0.0281166700	        8.7659958700	       -2.3826240400	        4.8425871100	        1.1160108100	       -1.3574555600	       -0.1023489000	       -0.0786072400	       -0.0219516600	       -0.0439762000	       -0.0140432900	       -0.7610924100	       -0.8782515600	        0.0891144000	        0.0010280300	        0.0121944400	        0.0323418600	        0.0194528900	
        2.7700000000	       -5.2546491000	       -1.4204841700	        6.8895997900	        9.3885252800	       -2.4169624700	        9.2910919600	        4.6443709100	       -6.0296429600	        3.4220261100	       -0.4856444400	       -3.8905750800	       -0.1274190100	        0.8440304800	       -0.3235608000	        0.0322037400	       -1.7648885400	      -49.8863594300	       -0.9192581400	       -3.8623268200	       24.7847013100	        2.7135208900	      -12.8170132500	        4.7750055100	        0.0283273100	        7.7126506600	       -2.5314967000	        5.0864757200	        1.1983130600	       -1.3440480200	       -0.0887203100	       -0.0605585900	       -0.0203489800	       -0.0449220900	       -0.0157852900	       -0.7283935100	       -0.8479863700	        0.1110613800	        0.0043236800	        0.0145036600	        0.0354618600	        0.0226962500	
        2.7800000000	       -6.9944057700	       -2.5147664000	        6.8748974400	        8.3989173400	        0.3958008900	       10.8950516700	        4.3744992100	       -6.6778250200	        3.5965971600	       -0.8647864100	       -4.1314624800	       -0.1036050800	        0.9878831500	       -0.3471424100	        0.0390265000	       -1.6303828400	      -49.9382950800	       -0.9766140600	       -4.5609321200	       24.7875453600	        2.7516860000	      -14.2573755000	        4.9326294000	        0.0285283500	        6.9369214600	       -2.4412531900	        5.3495524900	        1.2669077200	       -1.3492295600	       -0.0733560700	       -0.0476961900	       -0.0183570100	       -0.0459445300	       -0.0171279600	       -0.7033701900	       -0.8176311700	        0.1308905800	        0.0085819700	        0.0162823300	        0.0385908600	        0.0257517300	
